<?xml version="1.0" encoding="utf-8"?>
<!-- Generator: Adobe Illustrator 21.0.2, SVG Export Plug-In . SVG Version: 6.00 Build 0)  -->
<svg version="1.1" id="Layer_1" xmlns="http://www.w3.org/2000/svg" xmlns:xlink="http://www.w3.org/1999/xlink" x="0px" y="0px"
	 viewBox="0 0 100 100" style="enable-background:new 0 0 100 100;" xml:space="preserve">
<style type="text/css">
	.st0{fill:#010101;}
</style>
<path class="st0" d="M70.4,11.2c-7.8,0-15.3,3.4-20.4,9.4c-4.9-5.9-12.3-9.4-20.4-9.4C14.9,11.2,3,23.1,3,37.8
	C3,48.5,10.8,60.3,26.2,73c7.1,5.8,14.7,11,22.7,15.6c0.7,0.4,1.5,0.4,2.2,0c8-4.5,15.6-9.7,22.7-15.4C89.2,60.5,97,48.6,97,37.8
	C96.9,23.1,85,11.2,70.4,11.2z M70.9,69.5c-8.9,7.3-17.9,12.6-21,14.4c-3.1-1.8-12.1-7.2-21-14.5C11.3,54.8,7.6,44.2,7.6,37.8
	c0-12.2,9.9-22,22-22c7.7,0,14.6,3.7,18.5,9.9c0.4,0.7,1.1,1.1,1.9,1.1h0c0.8,0,1.5-0.4,1.9-1c6.7-10.2,20.4-13,30.6-6.2
	c6.1,4.1,9.9,10.9,9.9,18.3C92.4,44.3,88.7,55,70.9,69.5z"/>
</svg>
